<svg xmlns="http://www.w3.org/2000/svg" width="52.667" height="52.667" viewBox="0 0 52.667 52.667"><g transform="translate(0 0)"><path d="M51.876,32.707A26.327,26.327,0,1,1,32.7.791,26.33,26.33,0,0,1,51.876,32.707Z" transform="translate(0.003 -0.003)" fill="#f7931a"/></g><g transform="translate(12.815 9.176)"><path d="M45.323,27.87c.524-3.5-2.144-5.388-5.792-6.644l1.183-4.747-2.89-.72-1.152,4.621c-.76-.189-1.54-.368-2.315-.545l1.16-4.652-2.888-.72-1.184,4.745c-.629-.143-1.246-.285-1.845-.434l0-.015-3.985-.995-.769,3.086s2.144.491,2.1.522a1.537,1.537,0,0,1,1.346,1.68l-1.348,5.407a2.394,2.394,0,0,1,.3.1l-.305-.076-1.89,7.575a1.052,1.052,0,0,1-1.324.686c.029.042-2.1-.524-2.1-.524l-1.435,3.307,3.76.937c.7.175,1.385.359,2.06.532l-1.2,4.8,2.886.72,1.184-4.75c.788.214,1.554.411,2.3.6l-1.18,4.728,2.89.72,1.2-4.792c4.927.932,8.633.556,10.192-3.9,1.257-3.588-.063-5.657-2.655-7.007A4.608,4.608,0,0,0,45.323,27.87Zm-6.6,9.257c-.893,3.588-6.935,1.648-8.893,1.162l1.587-6.36C33.373,32.417,39.654,33.385,38.721,37.127Zm.894-9.309c-.815,3.264-5.843,1.605-7.475,1.2l1.439-5.769C35.21,23.655,40.463,24.414,39.615,27.818Z" transform="translate(-20.193 -14.464)" fill="#fff"/></g></svg>