<svg xmlns="http://www.w3.org/2000/svg" width="52.667" height="52.667" viewBox="0 0 52.667 52.667"><g transform="translate(0 0)"><g transform="translate(0 0)"><path d="M51.908,32.733A26.328,26.328,0,1,1,32.728.817,26.331,26.331,0,0,1,51.908,32.733Z" transform="translate(-0.028 -0.029)" fill="#627eea"/></g></g><g transform="translate(15.341 7.907)"><g transform="translate(0 0)"><g transform="translate(0 0)"><path d="M451.7,244.747a.744.744,0,0,1-.638-1.129l10.245-17a.744.744,0,0,1,1.382.384v12.342a.744.744,0,0,1-.436.678l-10.245,4.656A.744.744,0,0,1,451.7,244.747Zm9.5-15.066-7.625,12.651,7.625-3.465Z" transform="translate(-450.953 -226.26)" fill="#fff"/></g><g transform="translate(0 12.342)"><path d="M461.943,611.541a.744.744,0,0,1-.379-.1l-10.245-6.056a.744.744,0,0,1,.071-1.318l10.245-4.656a.744.744,0,0,1,1.052.678V610.8a.744.744,0,0,1-.744.744Zm-8.636-6.714,7.892,4.665v-8.252Z" transform="translate(-450.954 -599.34)" fill="#fff"/></g><g transform="translate(10.245)"><g transform="translate(0)"><path d="M771.628,244.747a.742.742,0,0,1-.308-.067l-10.245-4.656a.744.744,0,0,1-.436-.678V227a.744.744,0,0,1,1.382-.384l10.245,17a.744.744,0,0,1-.638,1.129Zm-9.5-5.88,7.625,3.465-7.625-12.651Z" transform="translate(-760.638 -226.26)" fill="#fff"/></g></g><g transform="translate(10.245 12.342)"><g transform="translate(0)"><path d="M761.383,611.54a.744.744,0,0,1-.744-.744V600.084a.744.744,0,0,1,1.052-.678l10.245,4.656a.744.744,0,0,1,.071,1.318l-10.245,6.056A.743.743,0,0,1,761.383,611.54Zm.744-10.3v8.252l7.892-4.665Z" transform="translate(-760.638 -599.339)" fill="#fff"/></g></g></g><g transform="translate(0 20.927)"><g transform="translate(0 0)"><path d="M461.945,874.742a.744.744,0,0,1-.607-.314l-10.245-14.436a.744.744,0,0,1,.986-1.072l10.245,6.053a.744.744,0,0,1,.366.641V874a.744.744,0,0,1-.744.744Zm-7.617-12.763,6.872,9.684v-5.623Z" transform="translate(-450.956 -858.817)" fill="#fff"/></g><g transform="translate(10.245 0)"><g transform="translate(0)"><path d="M761.383,874.739a.745.745,0,0,1-.744-.745v-8.383a.745.745,0,0,1,.366-.641l10.251-6.052a.744.744,0,0,1,.985,1.072L761.99,874.425A.745.745,0,0,1,761.383,874.739Zm.745-8.7v5.624L769,861.975Z" transform="translate(-760.638 -858.814)" fill="#fff"/></g></g></g></g></svg>