<svg id="Component_1_1" data-name="Component 1 – 1" xmlns="http://www.w3.org/2000/svg" xmlns:xlink="http://www.w3.org/1999/xlink" width="40" height="40" viewBox="0 0 40 40">
  <defs>
    <linearGradient id="linear-gradient" x1="0.5" y1="1" x2="0.5" gradientUnits="objectBoundingBox">
      <stop offset="0" stop-color="#480ae5"/>
      <stop offset="1" stop-color="#6925f8"/>
    </linearGradient>
  </defs>
  <g id="Group_2" data-name="Group 2">
    <rect id="Rectangle_1" data-name="Rectangle 1" width="40" height="40" rx="4" fill="url(#linear-gradient)"/>
  </g>
  <g id="Group_107" data-name="Group 107" transform="translate(8 8)">
    <path id="Path_370" data-name="Path 370" d="M22.925,6.606a5.6,5.6,0,0,0-.213-.752q-.091-.245-.2-.476a5.7,5.7,0,0,0-.349-.611,5.377,5.377,0,0,0-.424-.556v0q-.085-.1-.18-.192C21.54,4,21.521,3.98,21.5,3.963l-2.345-2.35-.006,0A5.28,5.28,0,0,0,15.355,0H5.3A5.3,5.3,0,0,0,0,5.291v10.33a5.286,5.286,0,0,0,1.472,3.652l2.492,2.489a5.351,5.351,0,0,0,.7.591,5.6,5.6,0,0,0,.6.36,5.257,5.257,0,0,0,1.341.472,5.323,5.323,0,0,0,1.065.107H17.733a5.285,5.285,0,0,0,1.072-.107c.172-.036.337-.082.5-.132a5.291,5.291,0,0,0,2.09-1.233q.192-.187.373-.4a5.281,5.281,0,0,0,.616-.889c.044-.082.084-.16.125-.243.075-.151.142-.31.2-.472.027-.082.057-.165.082-.245a4.486,4.486,0,0,0,.132-.509A5.324,5.324,0,0,0,23.035,18V7.671a5.34,5.34,0,0,0-.107-1.07m-5.2,14.838H7.676a3.4,3.4,0,0,1-1.83-.529A3.45,3.45,0,0,1,4.237,18V7.671A3.442,3.442,0,0,1,7.676,4.235H17.733a3.431,3.431,0,0,1,2.916,1.61,3.391,3.391,0,0,1,.528,1.83V18a3.442,3.442,0,0,1-3.442,3.439" transform="translate(0)" fill="#fff"/>
    <path id="Path_371" data-name="Path 371" d="M23.265,25.557H17.832a.767.767,0,0,0,0,1.533h2.652v1.518L20.5,28.6a.766.766,0,0,0,1.332.465l2-2.221a.766.766,0,0,0-.569-1.279" transform="translate(-7.974 -11.942)" fill="#fff"/>
    <path id="Path_372" data-name="Path 372" d="M17.723,19.626h5.431a.767.767,0,1,0,.036-1.534H20.5V16.573l-.016.013a.764.764,0,0,0-1.332-.462l-2,2.222a.766.766,0,0,0,.569,1.279" transform="translate(-7.923 -7.415)" fill="#fff"/>
  </g>
</svg>
