<svg id="tether" xmlns="http://www.w3.org/2000/svg" width="52.795" height="52.795" viewBox="0 0 52.795 52.795">
  <path id="Path_9" data-name="Path 9" d="M26.4,0A26.4,26.4,0,1,1,0,26.4,26.4,26.4,0,0,1,26.4,0" fill="#53ae94"/>
  <path id="Path_10" data-name="Path 10" d="M412.379,501.25v-3.927h8.98V491.34H396.906v5.983h8.981v3.924c-7.3.335-12.787,1.781-12.787,3.512s5.491,3.177,12.787,3.515v12.579h6.494v-12.58c7.286-.336,12.763-1.781,12.763-3.511s-5.477-3.175-12.763-3.511m0,5.956v0c-.183.012-1.125.068-3.221.068-1.676,0-2.855-.047-3.27-.069v.005c-6.448-.286-11.262-1.409-11.262-2.752s4.814-2.465,11.262-2.751v4.385c.422.029,1.63.1,3.3.1,2,0,3.009-.083,3.194-.1v-4.385c6.436.287,11.238,1.411,11.238,2.75s-4.8,2.463-11.238,2.75" transform="translate(-382.723 -478.37)" fill="#fff"/>
</svg>
